PathFileType	4	(X/Y/Z)	2014001\dynamic\2014001_C1_05.trc
DataRate	CameraRate	NumFrames	NumMarkers	Units	OrigDataRate	OrigDataStartFrame	OrigNumFrames
100.000000	100.000000	4	52	mm	100.000000	137	549
Frame#	Time	L_IAS			L_IPS			R_IPS			R_IAS			L_FTC			L_FLE			L_FME			L_FAX			L_TTC			L_FAL			L_TAM			L_FCC			L_FM1			L_FM2			L_FM5			R_FTC			R_FLE			R_FME			R_FAX			R_TTC			R_FAL			R_TAM			R_FCC			R_FM1			R_FM2			R_FM5			CV7			TV10			SXS			SJN			L_SIA			L_SRS			L_SAA			L_SAE			L_HLE			L_HME			L_UOA			L_RSP			L_UHE			L_HM2			L_HM5			R_SIA			R_SRS			R_SAA			R_SAE			R_HLE			R_HME			R_UOA			R_RSP			R_UHE			R_HM2			R_HM5			
		X1	Y1	Z1	X2	Y2	Z2	X3	Y3	Z3	X4	Y4	Z4	X5	Y5	Z5	X6	Y6	Z6	X7	Y7	Z7	X8	Y8	Z8	X9	Y9	Z9	X10	Y10	Z10	X11	Y11	Z11	X12	Y12	Z12	X13	Y13	Z13	X14	Y14	Z14	X15	Y15	Z15	X16	Y16	Z16	X17	Y17	Z17	X18	Y18	Z18	X19	Y19	Z19	X20	Y20	Z20	X21	Y21	Z21	X22	Y22	Z22	X23	Y23	Z23	X24	Y24	Z24	X25	Y25	Z25	X26	Y26	Z26	X27	Y27	Z27	X28	Y28	Z28	X29	Y29	Z29	X30	Y30	Z30	X31	Y31	Z31	X32	Y32	Z32	X33	Y33	Z33	X34	Y34	Z34	X35	Y35	Z35	X36	Y36	Z36	X37	Y37	Z37	X38	Y38	Z38	X39	Y39	Z39	X40	Y40	Z40	X41	Y41	Z41	X42	Y42	Z42	X43	Y43	Z43	X44	Y44	Z44	X45	Y45	Z45	X46	Y46	Z46	X47	Y47	Z47	X48	Y48	Z48	X49	Y49	Z49	X50	Y50	Z50	X51	Y51	Z51	X52	Y52	Z52	

138	1.37	416.3809509277346	867.806762695313	388.2791137695315	347.681365966797	906.8359985351567	208.0951995849611	258.0062561035157	909.8303222656255	201.6401214599611	175.6748199462891	897.0429687500005	378.090301513672	462.7528381347659	779.3425903320317	311.6036682128907	388.0912170410159	430.0269470214846	284.0662841796876	276.0109863281251	433.0428466796877	309.3213806152345	384.1373291015627	369.5658569335939	259.566864013672	338.1992797851564	352.0217285156251	320.6646728515626	303.0354614257814	60.15214920043948	204.6661834716798	218.279266357422	76.42177581787112	233.3112182617189	252.0462036132814	24.22770309448244	162.4285430908204	238.7093963623048	25.78442192077638	344.737762451172	302.4586791992189	35.89462280273439	349.9750366210939	345.3039550781251	23.25691223144532	291.6018676757814	111.7785263061524	800.734252929688	295.8516235351564	94.59431457519534	465.1609497070315	402.7389831542971	212.2149047851564	436.8465270996096	429.182312011719	84.86122894287112	409.3784790039065	375.109588623047	126.3216552734376	383.1018066406251	442.004089355469	96.01337432861334	115.4343032836915	260.5569458007814	175.4669952392579	109.4490814208985	310.1315307617189	151.5189514160157	73.02117919921878	215.0254058837892	134.2432556152344	42.59340286254884	397.2710876464846	79.50556182861331	61.54258728027347	389.8865356445315	47.23986053466798	57.46624374389651	334.8372802734376	324.0147094726564	1379.540649414063	221.1003417968751	323.1685791015626	1143.41845703125	161.2145233154297	317.4760131835939	1152.35546875	391.1966857910159	321.8974914550782	1313.429931640625	348.1357727050782	416.7403564453127	1181.278198242188	156.1445617675782	411.3547058105471	1312.8818359375	177.097396850586	517.3293457031252	1310.407104492188	252.3038177490236	502.5607604980471	1321.209228515625	293.1770629882814	573.4217529296877	1036.154296875	255.9651794433595	497.751159667969	1006.867614746094	226.6914367675782	547.6883544921877	1004.109619140625	221.2438964843751	527.7917480468752	807.4008789062505	350.6958923339845	594.9888305664065	802.2848510742192	306.3607177734376	534.0218505859377	726.886169433594	383.1457824707032	597.055114746094	723.703063964844	302.845184326172	210.515106201172	1191.482299804688	147.7916870117188	235.5442199707032	1314.979736328125	176.7750854492188	130.405746459961	1314.798828125	250.9013519287111	140.5199127197266	1318.988403320313	300.1588745117189	56.64772033691409	1022.828125	239.3866271972657	133.1494140625001	1002.638916015625	219.9491119384767	87.08258819580081	997.4594116210942	211.9424133300782	66.74280548095706	817.3115234375005	348.3793945312501	9.285649299621586	815.7583007812505	291.3873291015626	37.3181610107422	742.2041015625002	390.839294433594	2.269840955734254	736.5075683593752	292.4255371093751	
139	1.38	416.7993774414065	867.6975708007817	389.4438781738284	347.8452453613282	906.6607055664067	209.3683319091798	258.176239013672	909.677124023438	202.9964447021486	176.0624237060547	897.0535278320317	379.5727539062501	462.9810791015627	779.1915893554692	312.6907348632814	388.2075195312502	429.9284667968752	284.8833618164064	276.2678222656251	432.9631958007815	310.4390563964845	384.2497558593752	369.5545959472657	260.3276672363282	338.3529052734376	351.8035278320314	321.3257751464845	303.0137939453126	60.30227661132815	204.7058868408204	218.2467193603517	76.47473144531253	233.3171844482423	251.9849548339845	24.38829421997072	162.3935241699219	238.7372283935548	25.86689949035646	344.8214416503907	302.4546508789064	35.87929153442384	350.0516052246095	345.3244628906251	23.26536178588868	291.5735473632814	112.0252227783204	800.7261352539067	297.5197753906251	95.1969909667969	465.2932739257815	405.4575500488284	212.7506561279298	437.1949157714846	431.8865661621096	85.38024902343753	409.1634216308596	378.2981262207032	126.9663619995118	383.5814819335939	445.3123779296877	96.46579742431646	114.0492935180665	266.895477294922	175.9713134765626	108.5594711303712	316.4669189453126	151.9307250976563	70.99814605712893	221.8769073486329	134.7869567871094	42.72465896606447	404.4221191406252	79.99756622314456	61.62738418579104	396.7961730957034	47.71978759765626	56.94197082519534	341.8321228027345	324.2657470703126	1379.405517578125	222.353240966797	323.3914184570314	1143.28125	162.4693298339844	317.7779846191407	1152.228759765625	392.4566345214846	322.1636047363282	1313.312255859375	349.4014892578126	417.024353027344	1181.185180664063	157.3922576904297	411.628112792969	1312.776000976563	178.3686523437501	517.6109008789065	1310.31396484375	253.6086425781251	502.8193359375002	1321.09912109375	294.4724426269532	573.7749633789065	1036.068603515625	257.3169860839845	498.1272583007815	1006.760314941407	227.9740753173829	548.0740966796877	1004.023803710938	222.5809631347657	528.1140136718752	807.2897949218755	352.0010070800782	595.3530273437502	802.2058715820317	307.7136230468751	534.333435058594	726.7749023437502	384.434020996094	597.446716308594	723.6203613281252	304.1896362304689	210.7547912597657	1191.349853515625	149.0892791748047	235.7840576171876	1314.857055664063	178.0434875488282	130.6587982177735	1314.655639648438	252.1906585693361	140.7870025634766	1318.853149414063	301.4454650878907	56.94287872314456	1022.63525390625	240.7688598632814	133.4332122802735	1002.45654296875	221.3264465332032	87.37422943115237	997.237182617188	213.3249816894532	67.22626495361331	817.3344116210942	350.1495971679689	9.7601432800293	815.6162109375005	293.1675720214845	37.88779449462892	742.2778930664065	392.7607727050784	2.796587705612184	736.360534667969	294.3665466308595	
140	1.39	417.2083740234377	867.5907592773442	390.5891418457034	348.0012512207032	906.4982299804692	210.6220092773439	258.3374633789064	909.5302124023442	204.3397979736329	176.4441223144532	897.0416870117192	381.0376281738282	463.2132873535159	779.0522460937505	313.7492065429689	388.3294067382815	429.8291625976565	285.7154235839845	276.512420654297	432.8743286132815	311.5550842285157	384.3621215820315	369.5364379882814	261.0973205566407	338.5091857910157	351.5818176269532	322.0079345703126	302.9926147460939	60.47278976440433	204.7462768554689	218.2200622558595	76.52928161621097	233.3162536621095	251.9349212646486	24.54542541503908	162.3821105957032	238.7808380126954	25.96411705017091	344.918914794922	302.4589843750001	35.86507034301759	350.136688232422	345.3489074707032	23.27130889892579	291.5486145019532	112.2704620361329	800.7028198242192	299.1539001464845	95.7926940917969	465.4135437011721	408.1323852539065	213.2725677490236	437.564392089844	434.583923339844	85.90107727050784	408.9272766113284	381.4487915039064	127.6121139526368	384.0696105957034	448.6018981933596	96.97582244873053	112.6488265991212	273.2739868164064	176.5215454101563	107.7147293090821	322.8056640625001	152.4137878417969	68.96784210205081	228.8048095703126	135.3863220214844	42.85905075073244	411.6016845703127	80.52134704589847	61.72467422485354	403.7378845214846	48.24965667724612	56.41704177856448	348.8610839843751	324.4923400878907	1379.271240234375	223.6055755615236	323.5910644531251	1143.14697265625	163.7176818847657	318.0779113769532	1152.095703125	393.7083129882815	322.4229125976564	1313.192749023438	350.6629943847657	417.2858886718752	1181.093017578125	158.6286773681641	411.8791198730471	1312.674926757813	179.6273040771485	517.8765258789065	1310.220947265625	254.8923797607423	503.063415527344	1320.9931640625	295.7479248046876	574.108093261719	1035.975830078125	258.6773071289064	498.4814453125002	1006.647583007813	229.2713470458986	548.4370117187502	1003.92578125	223.9297485351564	528.412292480469	807.2018432617192	353.3595581054689	595.6865844726565	802.1325683593755	309.1279602050782	534.6146240234377	726.6948242187502	385.8079223632815	597.8023071289065	723.5432739257815	305.6175231933595	210.9661865234376	1191.219848632813	150.3951263427735	236.0005035400392	1314.735595703125	179.3168029785157	130.894271850586	1314.510131835938	253.4994659423829	141.0450592041016	1318.714965820313	302.7510375976564	57.21508407592776	1022.432861328125	242.2089233398439	133.687973022461	1002.267395019532	222.7408905029298	87.63286590576175	997.0001831054692	214.7640533447267	67.73639678955081	817.3710327148442	351.979949951172	10.22801780700684	815.473999023438	295.036346435547	38.48324203491212	742.3588867187502	394.7653503417971	3.317136049270632	736.210632324219	296.4026489257814	
141	1.4	417.6066589355471	867.4848022460942	391.7178344726565	348.1493225097657	906.3497924804692	211.8572387695314	258.4895629882814	909.390014648438	205.6708526611329	176.8179931640626	897.006225585938	382.486053466797	463.4528808593752	778.923217773438	314.7727966308595	388.458435058594	429.729919433594	286.5560607910157	276.742401123047	432.7743835449221	312.6571350097657	384.4751586914065	369.511199951172	261.8677978515626	338.6694335937501	351.358123779297	322.705780029297	302.972137451172	60.65901565551761	204.7862396240236	218.2024383544923	76.586051940918	233.3182067871095	251.8953552246095	24.69837379455568	162.3905944824219	238.8400421142579	26.07477378845216	345.027801513672	302.4719238281251	35.85289764404298	350.2275390625001	345.3776245117189	23.27412033081055	291.528289794922	112.5141601562501	800.661010742188	300.7599487304689	96.38098144531256	465.5201721191409	410.7635192871096	213.7834777832032	437.9562683105471	437.270202636719	86.4245300292969	408.6682434082034	384.5612487792971	128.2592163085938	384.565856933594	451.8726501464846	97.53843688964849	111.2281951904297	279.7067260742189	177.1136016845704	106.9085998535157	329.1601867675782	152.9624176025391	66.92671966552737	235.8235168457032	136.0370635986329	43.00200653076173	418.8254089355471	81.07419586181643	61.83571624755862	410.726501464844	48.8261528015137	55.89014816284183	355.9409790039064	324.6952514648439	1379.138061523438	224.8566741943361	323.767547607422	1143.016357421875	164.9610900878907	318.3758239746095	1151.959228515625	394.9547424316409	322.6760864257814	1313.072265625	351.920135498047	417.5230712890627	1180.9990234375	159.8550109863282	412.1063537597659	1312.576782226563	180.8716125488282	518.1250000000002	1310.127197265625	256.1497802734376	503.2940063476565	1320.891845703125	296.9988098144532	574.419128417969	1035.875610351563	260.0419006347657	498.8110656738284	1006.529357910157	230.5824432373048	548.7742309570315	1003.814147949219	225.2870483398439	528.6868896484377	807.1388549804692	354.7690734863282	595.9893188476565	802.0643920898442	310.600311279297	534.868103027344	726.6464843750002	387.266784667969	598.1213989257815	723.4716796875002	307.1260070800782	211.150360107422	1191.0908203125	151.7093811035157	236.1947174072267	1314.614135742188	180.5942840576172	131.1132049560547	1314.363525390625	254.8254241943361	141.2938385009766	1318.576049804688	304.072967529297	57.4653129577637	1022.223327636719	243.7041168212892	133.9159698486329	1002.072326660157	224.1921997070314	87.86024475097659	996.750122070313	216.2583618164064	68.27211761474612	817.418579101563	353.8654785156251	10.68810462951661	815.3329467773442	296.9888000488282	39.10042953491212	742.4470825195315	396.847839355469	3.830351352691652	736.0601806640627	298.5282287597657	
